<?xml version="1.0" standalone="no"?>
<!DOCTYPE svg PUBLIC "-//W3C//DTD SVG 20010904//EN"
 "http://www.w3.org/TR/2001/REC-SVG-20010904/DTD/svg10.dtd">
<svg version="1.0" xmlns="http://www.w3.org/2000/svg"
 width="360.000000pt" height="280.000000pt" viewBox="0 0 360.000000 280.000000"
 preserveAspectRatio="xMidYMid meet">
<metadata>
Created by potrace 1.16, written by Peter Selinger 2001-2019
</metadata>
<g transform="translate(0.000000,280.000000) scale(0.100000,-0.100000)"
fill="#000000" stroke="none">
<path d="M715 2431 c-29 -12 -44 -32 -65 -88 l-18 -48 -16 38 c-9 20 -25 46
-36 57 -37 37 -153 20 -191 -28 -21 -27 -21 -30 -15 -284 4 -141 11 -269 15
-284 10 -39 48 -63 107 -70 69 -9 111 13 120 61 8 43 26 45 41 5 7 -18 23 -34
40 -41 31 -12 120 -4 141 13 9 8 18 6 35 -10 26 -24 123 -46 161 -36 30 7 66
48 66 75 0 25 27 24 35 -1 10 -30 54 -60 90 -60 17 0 52 6 77 14 38 11 48 11
64 -1 14 -11 38 -14 94 -10 97 7 172 31 213 67 l33 29 11 -29 c21 -57 47 -63
199 -52 185 15 210 34 202 156 -4 47 -9 63 -29 78 -22 18 -23 26 -21 91 3 57
8 75 23 87 12 10 23 37 30 77 9 52 8 67 -6 96 -9 20 -24 39 -33 43 -9 4 -89 9
-177 12 -148 3 -162 2 -180 -15 -20 -19 -20 -19 -46 -1 -37 28 -90 37 -201 38
-88 0 -99 -2 -125 -24 l-28 -24 1 -173 0 -172 -58 174 c-32 95 -67 182 -78
193 -14 15 -37 21 -82 24 -89 6 -98 -7 -159 -210 -27 -90 -51 -167 -54 -173
-2 -5 -2 65 2 157 6 177 0 212 -37 236 -25 16 -120 24 -145 13z m899 -353 c-2
-29 -6 -59 -9 -67 -3 -8 10 -31 32 -55 l38 -41 -36 33 c-32 29 -37 31 -43 16
-5 -12 4 -29 26 -53 l33 -36 -36 33 c-24 22 -41 31 -53 26 -15 -6 -11 -13 26
-53 23 -25 -2 -2 -57 52 -55 53 -105 97 -110 97 -5 0 35 -46 90 -102 l100
-103 -92 90 c-51 49 -93 85 -93 80 0 -5 37 -48 83 -95 l82 -85 -82 80 c-100
96 -110 89 -15 -10 l67 -70 -67 65 c-83 79 -90 69 -10 -15 l57 -60 -57 55
c-67 63 -78 57 -15 -10 32 -34 33 -37 7 -12 -20 17 -39 32 -42 32 -10 0 -6
-43 6 -60 6 -8 -4 -2 -22 14 -36 33 -39 38 -18 30 20 -8 18 35 -3 61 -15 18
-15 19 0 7 15 -11 17 -8 15 26 0 21 -8 48 -16 58 -14 17 -14 18 1 6 15 -11 17
-8 15 26 0 21 -7 48 -15 58 -8 10 13 -8 47 -41 34 -33 62 -62 62 -64 0 -3 -18
12 -40 34 -22 21 -42 36 -45 34 -2 -3 23 -32 56 -65 58 -57 61 -58 75 -39 8
11 12 25 9 33 -2 7 -1 11 4 7 10 -5 31 78 31 121 0 14 4 23 8 20 5 -3 7 -29 6
-58z"/>
<path d="M2879 2412 c-20 -17 -25 -18 -52 -4 -25 12 -42 13 -100 4 -38 -6 -76
-17 -84 -25 -12 -12 -20 -11 -56 7 -50 25 -252 36 -310 17 -57 -19 -59 -34
-55 -351 l3 -282 32 -28 c26 -24 44 -29 108 -35 100 -10 193 -2 234 19 51 27
64 71 57 191 -7 126 -7 120 2 185 l7 55 34 -70 c33 -69 33 -72 28 -181 -6
-161 18 -203 107 -190 137 19 156 43 156 195 l0 104 65 143 c68 151 76 188 48
223 -34 42 -182 56 -224 23z"/>
<path d="M2290 1319 c-25 -5 -56 -17 -70 -27 -23 -16 -39 -17 -188 -8 -143 8
-167 7 -197 -7 -22 -11 -37 -26 -41 -44 -12 -47 4 -561 18 -591 24 -50 53 -55
216 -43 97 8 154 17 169 26 13 9 23 11 23 6 0 -5 16 -16 36 -26 41 -19 128
-14 159 9 16 11 22 9 44 -16 22 -25 36 -30 86 -34 46 -4 68 -1 95 13 34 18 35
18 57 -4 36 -37 139 -27 189 19 21 19 22 19 64 -3 84 -44 263 -22 327 41 55
54 71 206 29 292 -16 34 -16 38 -1 61 23 35 30 125 15 187 -16 68 -57 114
-115 130 -65 18 -214 8 -256 -17 l-33 -19 -27 31 c-26 29 -30 30 -112 30 -57
0 -89 -4 -101 -14 -11 -10 -40 -13 -94 -12 -49 1 -86 -4 -102 -12 -23 -13 -27
-12 -51 10 -30 28 -76 35 -139 22z"/>
<path d="M313 1309 c-66 -20 -67 -26 -60 -360 8 -368 8 -368 129 -369 117 0
138 22 138 150 0 79 0 80 28 86 56 12 82 27 94 55 19 44 26 13 27 -119 1 -113
1 -114 32 -144 l30 -31 144 6 c79 4 155 11 170 17 21 8 32 6 55 -12 26 -19 46
-22 163 -26 118 -4 139 -2 178 15 65 29 82 69 79 187 -4 156 -3 188 5 301 7
100 6 115 -12 156 -15 33 -30 50 -58 63 -69 33 -259 47 -337 26 -65 -18 -68
-30 -68 -253 l0 -199 -22 6 c-13 3 -39 6 -59 6 l-35 0 4 174 c5 213 2 236 -39
260 -26 15 -44 18 -101 12 -39 -3 -77 -10 -87 -15 -10 -6 -24 -5 -36 2 -26 15
-318 20 -362 6z m521 -90 c-3 -5 -19 -9 -35 -9 l-30 0 2 -157 2 -158 61 -62
c56 -58 96 -86 65 -45 -13 16 -12 16 6 1 28 -22 69 -23 60 -2 -5 15 -4 15 13
0 23 -21 39 -22 22 -2 -22 26 -4 16 21 -12 13 -15 16 -21 7 -14 -23 17 -23 4
-1 -23 l18 -21 -25 21 c-14 11 -38 21 -55 22 l-29 2 44 -47 45 -48 -50 48
c-68 63 -81 60 -20 -5 28 -29 -3 -1 -68 62 -64 63 -117 110 -117 105 0 -5 46
-57 103 -115 l102 -105 -95 93 c-53 50 -98 92 -102 92 -4 0 -6 -10 -6 -22 1
-14 30 -54 72 -98 l71 -75 -65 63 c-85 80 -102 80 -25 0 55 -58 56 -59 8 -13
-61 57 -71 50 -15 -10 30 -33 31 -35 5 -11 -36 32 -58 29 -28 -4 31 -34 11
-22 -26 16 -19 19 -26 32 -16 29 9 -4 17 -4 17 1 0 4 -8 16 -17 27 -10 11 -12
17 -5 13 6 -4 12 -3 12 1 0 5 -6 15 -12 22 -10 11 -10 13 0 7 6 -4 12 -3 12 1
0 5 -6 15 -12 22 -9 10 -9 12 -1 7 17 -10 12 76 -7 100 -14 17 -14 18 1 6 16
-12 17 -2 17 114 0 70 -4 139 -9 153 -8 19 -7 28 5 36 17 13 89 7 80 -6z m432
-2 l89 -3 -96 -2 c-104 -2 -108 -4 -104 -57 1 -16 3 -84 5 -150 l2 -120 51
-55 52 -55 -52 50 c-29 27 -53 45 -53 39 0 -6 30 -40 68 -76 37 -37 87 -88
112 -115 25 -26 -3 -2 -60 55 -58 56 -108 102 -112 102 -4 0 -6 -10 -6 -22 1
-14 32 -55 77 -103 l76 -80 -77 75 c-93 89 -104 83 -15 -10 58 -60 58 -61 7
-12 -71 66 -90 68 -25 2 27 -27 45 -50 40 -50 -6 0 -24 17 -42 37 -17 21 -35
35 -39 30 -4 -4 6 -22 22 -40 16 -17 7 -12 -19 13 -51 48 -54 52 -32 44 20 -8
19 5 -2 30 -17 20 -17 20 0 7 9 -7 17 -10 17 -6 0 5 -8 18 -17 29 -17 20 -17
20 0 7 9 -7 17 -10 17 -6 0 5 -8 18 -17 29 -17 20 -17 20 -1 7 16 -12 18 -11
16 15 -1 16 -6 35 -12 43 -8 11 -8 13 2 7 17 -10 15 4 -5 28 -16 19 -16 19 -1
7 16 -12 17 -3 13 139 -3 83 -8 156 -11 162 -9 14 18 29 31 18 6 -5 51 -11
101 -13z"/>
</g>
</svg>
